<svg width="20" height="19" viewBox="0 0 20 19" fill="none" xmlns="http://www.w3.org/2000/svg">
<path d="M10 10.3906C10.5178 10.3906 10.9375 9.99188 10.9375 9.5C10.9375 9.00812 10.5178 8.60938 10 8.60938C9.48223 8.60938 9.0625 9.00812 9.0625 9.5C9.0625 9.99188 9.48223 10.3906 10 10.3906Z" fill="black"/>
<path d="M10 5.64062C10.5178 5.64062 10.9375 5.24188 10.9375 4.75C10.9375 4.25812 10.5178 3.85938 10 3.85938C9.48223 3.85938 9.0625 4.25812 9.0625 4.75C9.0625 5.24188 9.48223 5.64062 10 5.64062Z" fill="black"/>
<path d="M10 15.1406C10.5178 15.1406 10.9375 14.7419 10.9375 14.25C10.9375 13.7581 10.5178 13.3594 10 13.3594C9.48223 13.3594 9.0625 13.7581 9.0625 14.25C9.0625 14.7419 9.48223 15.1406 10 15.1406Z" fill="black"/>
</svg>
