<svg width="115" height="107" viewBox="0 0 115 107" fill="none" xmlns="http://www.w3.org/2000/svg">
<path d="M57.2642 0C25.6182 0 0 23.8 0 53.2C0 82.6 25.6182 106.4 57.2642 106.4C88.9102 106.4 114.528 82.6 114.528 53.2C114.528 23.8 88.9102 0 57.2642 0ZM55.2191 74.1L51.0211 85.6C50.9135 86 50.6982 86.3 50.4829 86.6C49.9447 87.4 49.2989 88 48.4378 88.4C47.6843 88.8 46.8232 89 45.9621 89C45.4239 89 44.778 88.9 44.2398 88.7C41.8718 87.9 40.3648 85.7 40.6877 83.5C28.8474 77.9 20.7744 66.4 20.7744 53.2C20.7744 34.4 37.1356 19.1 57.4795 19.1C59.8476 19.1 62.108 19.3 64.3684 19.7C65.6601 17.8 68.2435 16.9 70.6115 17.6C71.9032 18 72.872 18.8 73.5178 19.8C74.056 20.7 74.3789 21.7 74.2713 22.8C74.2713 23.2 74.1636 23.6 74.056 23.9L69.858 35.4L55.2191 74.1ZM59.8476 87.2L64.9066 73C73.6254 70.1 79.8685 62.4 79.8685 53.2C79.8685 48.9 78.4692 44.8 75.9935 41.5L81.0526 27.3C88.9102 33.5 93.9693 42.8 93.9693 53.2C93.8617 71.2 78.8998 85.9 59.8476 87.2Z" fill="#303030"/>
<path d="M34.6599 53.2C34.6599 60.6 38.8579 67.1 45.1009 70.9L59.3094 32.3C58.6635 32.2 57.91 32.2 57.2642 32.2C44.778 32.2 34.6599 41.6 34.6599 53.2Z" fill="#303030"/>
</svg>
